<mxfile host="Electron" modified="2023-12-09T05:05:04.167Z" agent="Mozilla/5.0 (Windows NT 10.0; Win64; x64) AppleWebKit/537.36 (KHTML, like Gecko) draw.io/22.0.3 Chrome/114.0.5735.289 Electron/25.8.4 Safari/537.36" etag="oJUNFKE1SHXCWlDAfilZ" version="22.0.3" type="device">
  <diagram name="Page-1" id="BDhZoucBbCDTCJZ2YAFx">
    <mxGraphModel dx="1182" dy="690" grid="1" gridSize="10" guides="1" tooltips="1" connect="1" arrows="1" fold="1" page="1" pageScale="1" pageWidth="850" pageHeight="1100" math="0" shadow="0">
      <root>
        <mxCell id="0" />
        <mxCell id="1" parent="0" />
        <mxCell id="Ns25BOS1uNBW71o0XdtV-1" value="AWS Cloud" style="points=[[0,0],[0.25,0],[0.5,0],[0.75,0],[1,0],[1,0.25],[1,0.5],[1,0.75],[1,1],[0.75,1],[0.5,1],[0.25,1],[0,1],[0,0.75],[0,0.5],[0,0.25]];outlineConnect=0;gradientColor=none;html=1;whiteSpace=wrap;fontSize=16;fontStyle=0;container=1;pointerEvents=0;collapsible=0;recursiveResize=0;shape=mxgraph.aws4.group;grIcon=mxgraph.aws4.group_aws_cloud;strokeColor=#232F3E;fillColor=none;verticalAlign=top;align=left;spacingLeft=30;fontColor=#232F3E;dashed=0;strokeWidth=1;rounded=0;" parent="1" vertex="1">
          <mxGeometry y="190" width="820" height="680" as="geometry" />
        </mxCell>
        <mxCell id="Ns25BOS1uNBW71o0XdtV-2" value="&lt;font style=&quot;font-size: 16px;&quot;&gt;us-west-1&lt;/font&gt;" style="points=[[0,0],[0.25,0],[0.5,0],[0.75,0],[1,0],[1,0.25],[1,0.5],[1,0.75],[1,1],[0.75,1],[0.5,1],[0.25,1],[0,1],[0,0.75],[0,0.5],[0,0.25]];outlineConnect=0;gradientColor=none;html=1;whiteSpace=wrap;fontSize=12;fontStyle=0;container=1;pointerEvents=0;collapsible=0;recursiveResize=0;shape=mxgraph.aws4.group;grIcon=mxgraph.aws4.group_region;strokeColor=#147EBA;fillColor=none;verticalAlign=top;align=left;spacingLeft=30;fontColor=#147EBA;dashed=1;rounded=0;" parent="Ns25BOS1uNBW71o0XdtV-1" vertex="1">
          <mxGeometry x="20" y="40" width="780" height="480" as="geometry" />
        </mxCell>
        <mxCell id="Ns25BOS1uNBW71o0XdtV-12" value="" style="outlineConnect=0;fontColor=#232F3E;gradientColor=none;fillColor=#8C4FFF;strokeColor=none;dashed=0;verticalLabelPosition=bottom;verticalAlign=top;align=center;html=1;fontSize=12;fontStyle=0;aspect=fixed;pointerEvents=1;shape=mxgraph.aws4.internet_gateway;rounded=0;" parent="Ns25BOS1uNBW71o0XdtV-2" vertex="1">
          <mxGeometry x="170.25" y="45" width="60" height="60" as="geometry" />
        </mxCell>
        <mxCell id="Ns25BOS1uNBW71o0XdtV-3" value="Lab Vpc&amp;nbsp;&lt;br style=&quot;font-size: 16px;&quot;&gt;10.0.0.0/20" style="points=[[0,0],[0.25,0],[0.5,0],[0.75,0],[1,0],[1,0.25],[1,0.5],[1,0.75],[1,1],[0.75,1],[0.5,1],[0.25,1],[0,1],[0,0.75],[0,0.5],[0,0.25]];outlineConnect=0;gradientColor=none;html=1;whiteSpace=wrap;fontSize=16;fontStyle=0;container=1;pointerEvents=0;collapsible=0;recursiveResize=0;shape=mxgraph.aws4.group;grIcon=mxgraph.aws4.group_vpc;strokeColor=#248814;fillColor=none;verticalAlign=top;align=left;spacingLeft=30;fontColor=#000000;dashed=0;rounded=0;" parent="Ns25BOS1uNBW71o0XdtV-2" vertex="1">
          <mxGeometry x="30" y="70" width="720" height="380" as="geometry" />
        </mxCell>
        <mxCell id="Ns25BOS1uNBW71o0XdtV-5" value="Public subnet&lt;br&gt;10.0.0.0/24" style="points=[[0,0],[0.25,0],[0.5,0],[0.75,0],[1,0],[1,0.25],[1,0.5],[1,0.75],[1,1],[0.75,1],[0.5,1],[0.25,1],[0,1],[0,0.75],[0,0.5],[0,0.25]];outlineConnect=0;gradientColor=none;html=1;whiteSpace=wrap;fontSize=12;fontStyle=0;container=1;pointerEvents=0;collapsible=0;recursiveResize=0;shape=mxgraph.aws4.group;grIcon=mxgraph.aws4.group_security_group;grStroke=0;strokeColor=#248814;fillColor=#E9F3E6;verticalAlign=top;align=left;spacingLeft=30;fontColor=#248814;dashed=0;rounded=0;" parent="Ns25BOS1uNBW71o0XdtV-3" vertex="1">
          <mxGeometry x="40" y="100" width="210" height="230" as="geometry" />
        </mxCell>
        <mxCell id="Ns25BOS1uNBW71o0XdtV-4" value="us-west-1a" style="fillColor=none;strokeColor=#147EBA;dashed=1;verticalAlign=top;fontStyle=0;fontColor=#147EBA;whiteSpace=wrap;html=1;fontSize=16;rounded=0;" parent="Ns25BOS1uNBW71o0XdtV-5" vertex="1">
          <mxGeometry x="-30" y="-60" width="460" height="320" as="geometry" />
        </mxCell>
        <mxCell id="Ns25BOS1uNBW71o0XdtV-16" value="" style="outlineConnect=0;fontColor=#232F3E;gradientColor=none;fillColor=#8C4FFF;strokeColor=none;dashed=0;verticalLabelPosition=bottom;verticalAlign=top;align=center;html=1;fontSize=12;fontStyle=0;aspect=fixed;pointerEvents=1;shape=mxgraph.aws4.nat_gateway;rounded=0;" parent="Ns25BOS1uNBW71o0XdtV-5" vertex="1">
          <mxGeometry x="140" y="70" width="50" height="50" as="geometry" />
        </mxCell>
        <mxCell id="Ns25BOS1uNBW71o0XdtV-116" value="" style="edgeStyle=orthogonalEdgeStyle;rounded=0;orthogonalLoop=1;jettySize=auto;html=1;" parent="Ns25BOS1uNBW71o0XdtV-5" source="Ns25BOS1uNBW71o0XdtV-7" target="Ns25BOS1uNBW71o0XdtV-16" edge="1">
          <mxGeometry relative="1" as="geometry" />
        </mxCell>
        <mxCell id="Ns25BOS1uNBW71o0XdtV-7" value="" style="points=[[0,0,0],[0.25,0,0],[0.5,0,0],[0.75,0,0],[1,0,0],[0,1,0],[0.25,1,0],[0.5,1,0],[0.75,1,0],[1,1,0],[0,0.25,0],[0,0.5,0],[0,0.75,0],[1,0.25,0],[1,0.5,0],[1,0.75,0]];outlineConnect=0;fontColor=#232F3E;fillColor=#ED7100;strokeColor=#ffffff;dashed=0;verticalLabelPosition=bottom;verticalAlign=top;align=center;html=1;fontSize=12;fontStyle=0;aspect=fixed;shape=mxgraph.aws4.resourceIcon;resIcon=mxgraph.aws4.compute;rounded=0;" parent="Ns25BOS1uNBW71o0XdtV-5" vertex="1">
          <mxGeometry x="39" y="65" width="60" height="60" as="geometry" />
        </mxCell>
        <mxCell id="Ns25BOS1uNBW71o0XdtV-8" value="Web Server" style="text;html=1;strokeColor=none;fillColor=none;align=center;verticalAlign=middle;whiteSpace=wrap;rounded=0;fontSize=14;fontStyle=1;" parent="Ns25BOS1uNBW71o0XdtV-5" vertex="1">
          <mxGeometry x="22.75" y="130" width="92.5" height="20" as="geometry" />
        </mxCell>
        <mxCell id="Ns25BOS1uNBW71o0XdtV-6" value="Private subnet&lt;br&gt;10.0.1.0/24" style="points=[[0,0],[0.25,0],[0.5,0],[0.75,0],[1,0],[1,0.25],[1,0.5],[1,0.75],[1,1],[0.75,1],[0.5,1],[0.25,1],[0,1],[0,0.75],[0,0.5],[0,0.25]];outlineConnect=0;gradientColor=none;html=1;whiteSpace=wrap;fontSize=12;fontStyle=0;container=1;pointerEvents=0;collapsible=0;recursiveResize=0;shape=mxgraph.aws4.group;grIcon=mxgraph.aws4.group_security_group;grStroke=0;strokeColor=#147EBA;fillColor=#E6F2F8;verticalAlign=top;align=left;spacingLeft=30;fontColor=#147EBA;dashed=0;rounded=0;" parent="Ns25BOS1uNBW71o0XdtV-3" vertex="1">
          <mxGeometry x="270" y="100" width="190" height="230" as="geometry" />
        </mxCell>
        <mxCell id="Ns25BOS1uNBW71o0XdtV-19" value="" style="outlineConnect=0;fontColor=#232F3E;gradientColor=none;fillColor=#8C4FFF;strokeColor=none;dashed=0;verticalLabelPosition=bottom;verticalAlign=top;align=center;html=1;fontSize=12;fontStyle=0;aspect=fixed;pointerEvents=1;shape=mxgraph.aws4.route_table;rounded=0;" parent="Ns25BOS1uNBW71o0XdtV-6" vertex="1">
          <mxGeometry x="29.99999999999997" y="150" width="46.18" height="45" as="geometry" />
        </mxCell>
        <mxCell id="Ns25BOS1uNBW71o0XdtV-22" value="Private Route Table" style="text;html=1;strokeColor=none;fillColor=none;align=center;verticalAlign=middle;whiteSpace=wrap;rounded=0;" parent="Ns25BOS1uNBW71o0XdtV-6" vertex="1">
          <mxGeometry y="195" width="113.09" height="15" as="geometry" />
        </mxCell>
        <mxCell id="Ns25BOS1uNBW71o0XdtV-112" value="" style="sketch=0;points=[[0,0,0],[0.25,0,0],[0.5,0,0],[0.75,0,0],[1,0,0],[0,1,0],[0.25,1,0],[0.5,1,0],[0.75,1,0],[1,1,0],[0,0.25,0],[0,0.5,0],[0,0.75,0],[1,0.25,0],[1,0.5,0],[1,0.75,0]];outlineConnect=0;fontColor=#232F3E;fillColor=#4934D1;strokeColor=#ffffff;dashed=0;verticalLabelPosition=bottom;verticalAlign=top;align=center;html=1;fontSize=12;fontStyle=0;aspect=fixed;shape=mxgraph.aws4.resourceIcon;resIcon=mxgraph.aws4.database;" parent="Ns25BOS1uNBW71o0XdtV-6" vertex="1">
          <mxGeometry x="120" y="70" width="40" height="40" as="geometry" />
        </mxCell>
        <mxCell id="Ns25BOS1uNBW71o0XdtV-113" value="&lt;font style=&quot;font-size: 14px;&quot;&gt;&lt;b&gt;Database&lt;/b&gt;&lt;/font&gt;" style="text;html=1;strokeColor=none;fillColor=none;align=center;verticalAlign=middle;whiteSpace=wrap;rounded=0;" parent="Ns25BOS1uNBW71o0XdtV-6" vertex="1">
          <mxGeometry x="110" y="110" width="60" height="30" as="geometry" />
        </mxCell>
        <mxCell id="Ns25BOS1uNBW71o0XdtV-103" value="Internet Gateway" style="text;html=1;strokeColor=none;fillColor=none;align=center;verticalAlign=middle;whiteSpace=wrap;rounded=0;" parent="Ns25BOS1uNBW71o0XdtV-3" vertex="1">
          <mxGeometry x="205" width="100" height="30" as="geometry" />
        </mxCell>
        <mxCell id="Ns25BOS1uNBW71o0XdtV-115" value="" style="edgeStyle=orthogonalEdgeStyle;rounded=0;orthogonalLoop=1;jettySize=auto;html=1;" parent="Ns25BOS1uNBW71o0XdtV-3" source="Ns25BOS1uNBW71o0XdtV-112" target="Ns25BOS1uNBW71o0XdtV-16" edge="1">
          <mxGeometry relative="1" as="geometry">
            <mxPoint x="310" y="170" as="targetPoint" />
          </mxGeometry>
        </mxCell>
        <mxCell id="gm8xU3Txg-6auZcXU6Fv-2" value="us-west-1b" style="fillColor=none;strokeColor=#147EBA;dashed=1;verticalAlign=top;fontStyle=0;fontColor=#147EBA;whiteSpace=wrap;html=1;" vertex="1" parent="Ns25BOS1uNBW71o0XdtV-3">
          <mxGeometry x="490" y="40" width="210" height="320" as="geometry" />
        </mxCell>
        <mxCell id="gm8xU3Txg-6auZcXU6Fv-3" value="Private subnet&lt;br style=&quot;border-color: var(--border-color);&quot;&gt;10.0.3.0/24" style="points=[[0,0],[0.25,0],[0.5,0],[0.75,0],[1,0],[1,0.25],[1,0.5],[1,0.75],[1,1],[0.75,1],[0.5,1],[0.25,1],[0,1],[0,0.75],[0,0.5],[0,0.25]];outlineConnect=0;gradientColor=none;html=1;whiteSpace=wrap;fontSize=12;fontStyle=0;container=1;pointerEvents=0;collapsible=0;recursiveResize=0;shape=mxgraph.aws4.group;grIcon=mxgraph.aws4.group_security_group;grStroke=0;strokeColor=#147EBA;fillColor=#E6F2F8;verticalAlign=top;align=left;spacingLeft=30;fontColor=#147EBA;dashed=0;" vertex="1" parent="Ns25BOS1uNBW71o0XdtV-3">
          <mxGeometry x="515" y="220" width="165" height="120" as="geometry" />
        </mxCell>
        <mxCell id="gm8xU3Txg-6auZcXU6Fv-6" value="Public subnet&lt;br&gt;10.0.2.0/24" style="points=[[0,0],[0.25,0],[0.5,0],[0.75,0],[1,0],[1,0.25],[1,0.5],[1,0.75],[1,1],[0.75,1],[0.5,1],[0.25,1],[0,1],[0,0.75],[0,0.5],[0,0.25]];outlineConnect=0;gradientColor=none;html=1;whiteSpace=wrap;fontSize=12;fontStyle=0;container=1;pointerEvents=0;collapsible=0;recursiveResize=0;shape=mxgraph.aws4.group;grIcon=mxgraph.aws4.group_security_group;grStroke=0;strokeColor=#248814;fillColor=#E9F3E6;verticalAlign=top;align=left;spacingLeft=30;fontColor=#248814;dashed=0;" vertex="1" parent="Ns25BOS1uNBW71o0XdtV-3">
          <mxGeometry x="520" y="80" width="150" height="120" as="geometry" />
        </mxCell>
        <mxCell id="Ns25BOS1uNBW71o0XdtV-18" value="" style="edgeStyle=orthogonalEdgeStyle;rounded=0;orthogonalLoop=1;jettySize=auto;html=1;" parent="Ns25BOS1uNBW71o0XdtV-2" source="Ns25BOS1uNBW71o0XdtV-16" target="Ns25BOS1uNBW71o0XdtV-12" edge="1">
          <mxGeometry relative="1" as="geometry">
            <mxPoint x="235" y="155" as="targetPoint" />
          </mxGeometry>
        </mxCell>
        <mxCell id="Ns25BOS1uNBW71o0XdtV-93" value="" style="points=[[0,0,0],[0.25,0,0],[0.5,0,0],[0.75,0,0],[1,0,0],[0,1,0],[0.25,1,0],[0.5,1,0],[0.75,1,0],[1,1,0],[0,0.25,0],[0,0.5,0],[0,0.75,0],[1,0.25,0],[1,0.5,0],[1,0.75,0]];outlineConnect=0;fontColor=#232F3E;fillColor=#7AA116;strokeColor=#ffffff;dashed=0;verticalLabelPosition=bottom;verticalAlign=top;align=center;html=1;fontSize=12;fontStyle=0;aspect=fixed;shape=mxgraph.aws4.resourceIcon;resIcon=mxgraph.aws4.s3;rounded=0;" parent="Ns25BOS1uNBW71o0XdtV-2" vertex="1">
          <mxGeometry x="350" width="45" height="45" as="geometry" />
        </mxCell>
        <mxCell id="Ns25BOS1uNBW71o0XdtV-102" value="S3 Bucket" style="text;html=1;strokeColor=none;fillColor=none;align=center;verticalAlign=middle;whiteSpace=wrap;rounded=0;" parent="Ns25BOS1uNBW71o0XdtV-2" vertex="1">
          <mxGeometry x="340" y="45" width="65" height="25" as="geometry" />
        </mxCell>
        <mxCell id="Ns25BOS1uNBW71o0XdtV-100" value="" style="edgeStyle=orthogonalEdgeStyle;rounded=0;orthogonalLoop=1;jettySize=auto;html=1;" parent="Ns25BOS1uNBW71o0XdtV-1" source="Ns25BOS1uNBW71o0XdtV-94" target="Ns25BOS1uNBW71o0XdtV-97" edge="1">
          <mxGeometry relative="1" as="geometry" />
        </mxCell>
        <mxCell id="Ns25BOS1uNBW71o0XdtV-94" value="" style="points=[[0,0,0],[0.25,0,0],[0.5,0,0],[0.75,0,0],[1,0,0],[0,1,0],[0.25,1,0],[0.5,1,0],[0.75,1,0],[1,1,0],[0,0.25,0],[0,0.5,0],[0,0.75,0],[1,0.25,0],[1,0.5,0],[1,0.75,0]];points=[[0,0,0],[0.25,0,0],[0.5,0,0],[0.75,0,0],[1,0,0],[0,1,0],[0.25,1,0],[0.5,1,0],[0.75,1,0],[1,1,0],[0,0.25,0],[0,0.5,0],[0,0.75,0],[1,0.25,0],[1,0.5,0],[1,0.75,0]];outlineConnect=0;fontColor=#232F3E;fillColor=#E7157B;strokeColor=#ffffff;dashed=0;verticalLabelPosition=bottom;verticalAlign=top;align=center;html=1;fontSize=12;fontStyle=0;aspect=fixed;shape=mxgraph.aws4.resourceIcon;resIcon=mxgraph.aws4.cloudwatch_2;rounded=0;" parent="Ns25BOS1uNBW71o0XdtV-1" vertex="1">
          <mxGeometry x="79" y="540" width="50" height="50" as="geometry" />
        </mxCell>
        <mxCell id="Ns25BOS1uNBW71o0XdtV-96" value="CPU Utilization" style="text;html=1;strokeColor=none;fillColor=none;align=center;verticalAlign=middle;whiteSpace=wrap;rounded=0;" parent="Ns25BOS1uNBW71o0XdtV-1" vertex="1">
          <mxGeometry x="53.5" y="588.5" width="101" height="30" as="geometry" />
        </mxCell>
        <mxCell id="Ns25BOS1uNBW71o0XdtV-97" value="" style="outlineConnect=0;fontColor=#232F3E;gradientColor=none;fillColor=#E7157B;strokeColor=none;dashed=0;verticalLabelPosition=bottom;verticalAlign=top;align=center;html=1;fontSize=12;fontStyle=0;aspect=fixed;pointerEvents=1;shape=mxgraph.aws4.alarm;rounded=0;" parent="Ns25BOS1uNBW71o0XdtV-1" vertex="1">
          <mxGeometry x="250" y="541.5" width="47" height="47" as="geometry" />
        </mxCell>
        <mxCell id="Ns25BOS1uNBW71o0XdtV-99" value="" style="edgeStyle=orthogonalEdgeStyle;rounded=0;orthogonalLoop=1;jettySize=auto;html=1;entryX=0;entryY=0.5;entryDx=0;entryDy=0;entryPerimeter=0;" parent="Ns25BOS1uNBW71o0XdtV-1" source="Ns25BOS1uNBW71o0XdtV-94" target="Ns25BOS1uNBW71o0XdtV-7" edge="1">
          <mxGeometry relative="1" as="geometry" />
        </mxCell>
        <mxCell id="Ns25BOS1uNBW71o0XdtV-101" value="SNS notification" style="text;html=1;strokeColor=none;fillColor=none;align=center;verticalAlign=middle;whiteSpace=wrap;rounded=0;" parent="Ns25BOS1uNBW71o0XdtV-1" vertex="1">
          <mxGeometry x="225.25" y="588.5" width="96.5" height="30" as="geometry" />
        </mxCell>
        <mxCell id="Ns25BOS1uNBW71o0XdtV-83" value="Private Route Table" style="shape=table;startSize=30;container=1;collapsible=0;childLayout=tableLayout;labelBackgroundColor=none;align=center;labelBorderColor=none;strokeWidth=3;fillStyle=solid;rounded=0;fillColor=#f5f5f5;fontColor=#333333;strokeColor=#666666;whiteSpace=wrap;html=1;gradientColor=none;swimlaneFillColor=default;" parent="Ns25BOS1uNBW71o0XdtV-1" vertex="1">
          <mxGeometry x="330" y="553.5" width="230" height="100" as="geometry" />
        </mxCell>
        <mxCell id="Ns25BOS1uNBW71o0XdtV-84" style="shape=tableRow;horizontal=0;startSize=0;swimlaneHead=0;swimlaneBody=0;strokeColor=inherit;top=0;left=0;bottom=0;right=0;collapsible=0;dropTarget=0;fillColor=none;points=[[0,0.5],[1,0.5]];portConstraint=eastwest;rounded=0;" parent="Ns25BOS1uNBW71o0XdtV-83" vertex="1">
          <mxGeometry y="30" width="230" height="27" as="geometry" />
        </mxCell>
        <mxCell id="Ns25BOS1uNBW71o0XdtV-85" value="Destination" style="shape=partialRectangle;html=1;whiteSpace=wrap;connectable=0;overflow=hidden;top=0;left=0;bottom=0;right=0;pointerEvents=1;labelBackgroundColor=none;strokeWidth=2;rounded=0;" parent="Ns25BOS1uNBW71o0XdtV-84" vertex="1">
          <mxGeometry width="115" height="27" as="geometry">
            <mxRectangle width="115" height="27" as="alternateBounds" />
          </mxGeometry>
        </mxCell>
        <mxCell id="Ns25BOS1uNBW71o0XdtV-86" value="Target" style="shape=partialRectangle;connectable=0;overflow=hidden;top=0;left=0;bottom=0;right=0;pointerEvents=1;labelBackgroundColor=none;whiteSpace=wrap;html=1;labelBorderColor=none;fillStyle=solid;strokeWidth=2;rounded=0;" parent="Ns25BOS1uNBW71o0XdtV-84" vertex="1">
          <mxGeometry x="115" width="115" height="27" as="geometry">
            <mxRectangle width="115" height="27" as="alternateBounds" />
          </mxGeometry>
        </mxCell>
        <mxCell id="Ns25BOS1uNBW71o0XdtV-87" style="shape=tableRow;horizontal=0;startSize=0;swimlaneHead=0;swimlaneBody=0;strokeColor=inherit;top=0;left=0;bottom=0;right=0;collapsible=0;dropTarget=0;fillColor=none;points=[[0,0.5],[1,0.5]];portConstraint=eastwest;rounded=0;" parent="Ns25BOS1uNBW71o0XdtV-83" vertex="1">
          <mxGeometry y="57" width="230" height="22" as="geometry" />
        </mxCell>
        <mxCell id="Ns25BOS1uNBW71o0XdtV-88" value="10.0.0.0/16" style="shape=partialRectangle;html=1;whiteSpace=wrap;connectable=0;overflow=hidden;top=0;left=0;bottom=0;right=0;pointerEvents=1;labelBackgroundColor=none;fillColor=#f5f5f5;fontColor=#333333;strokeColor=#666666;strokeWidth=2;perimeterSpacing=0;rounded=0;" parent="Ns25BOS1uNBW71o0XdtV-87" vertex="1">
          <mxGeometry width="115" height="22" as="geometry">
            <mxRectangle width="115" height="22" as="alternateBounds" />
          </mxGeometry>
        </mxCell>
        <mxCell id="Ns25BOS1uNBW71o0XdtV-89" value="Local" style="shape=partialRectangle;html=1;whiteSpace=wrap;connectable=0;overflow=hidden;top=0;left=0;bottom=0;right=0;pointerEvents=1;fillColor=#f5f5f5;fontColor=#333333;strokeColor=#666666;strokeWidth=2;rounded=0;" parent="Ns25BOS1uNBW71o0XdtV-87" vertex="1">
          <mxGeometry x="115" width="115" height="22" as="geometry">
            <mxRectangle width="115" height="22" as="alternateBounds" />
          </mxGeometry>
        </mxCell>
        <mxCell id="Ns25BOS1uNBW71o0XdtV-90" style="shape=tableRow;horizontal=0;startSize=0;swimlaneHead=0;swimlaneBody=0;strokeColor=inherit;top=0;left=0;bottom=0;right=0;collapsible=0;dropTarget=0;fillColor=none;points=[[0,0.5],[1,0.5]];portConstraint=eastwest;rounded=0;" parent="Ns25BOS1uNBW71o0XdtV-83" vertex="1">
          <mxGeometry y="79" width="230" height="21" as="geometry" />
        </mxCell>
        <mxCell id="Ns25BOS1uNBW71o0XdtV-91" value="0.0.0.0/0" style="shape=partialRectangle;html=1;whiteSpace=wrap;connectable=0;overflow=hidden;top=0;left=0;bottom=0;right=0;pointerEvents=1;strokeWidth=2;rounded=0;" parent="Ns25BOS1uNBW71o0XdtV-90" vertex="1">
          <mxGeometry width="115" height="21" as="geometry">
            <mxRectangle width="115" height="21" as="alternateBounds" />
          </mxGeometry>
        </mxCell>
        <mxCell id="Ns25BOS1uNBW71o0XdtV-92" value="Nat Gateway" style="shape=partialRectangle;html=1;whiteSpace=wrap;connectable=0;overflow=hidden;top=0;left=0;bottom=0;right=0;pointerEvents=1;strokeWidth=2;rounded=0;" parent="Ns25BOS1uNBW71o0XdtV-90" vertex="1">
          <mxGeometry x="115" width="115" height="21" as="geometry">
            <mxRectangle width="115" height="21" as="alternateBounds" />
          </mxGeometry>
        </mxCell>
        <mxCell id="Ns25BOS1uNBW71o0XdtV-63" value="Public Route Table" style="shape=table;startSize=30;container=1;collapsible=0;childLayout=tableLayout;labelBackgroundColor=none;align=center;labelBorderColor=none;strokeWidth=3;fillStyle=solid;rounded=0;fillColor=#f5f5f5;fontColor=#333333;strokeColor=#666666;whiteSpace=wrap;html=1;gradientColor=none;swimlaneFillColor=default;" parent="Ns25BOS1uNBW71o0XdtV-1" vertex="1">
          <mxGeometry x="570" y="553.5" width="230" height="100" as="geometry" />
        </mxCell>
        <mxCell id="Ns25BOS1uNBW71o0XdtV-80" style="shape=tableRow;horizontal=0;startSize=0;swimlaneHead=0;swimlaneBody=0;strokeColor=inherit;top=0;left=0;bottom=0;right=0;collapsible=0;dropTarget=0;fillColor=none;points=[[0,0.5],[1,0.5]];portConstraint=eastwest;rounded=0;" parent="Ns25BOS1uNBW71o0XdtV-63" vertex="1">
          <mxGeometry y="30" width="230" height="27" as="geometry" />
        </mxCell>
        <mxCell id="Ns25BOS1uNBW71o0XdtV-81" value="Destination" style="shape=partialRectangle;html=1;whiteSpace=wrap;connectable=0;overflow=hidden;top=0;left=0;bottom=0;right=0;pointerEvents=1;labelBackgroundColor=none;strokeWidth=2;rounded=0;" parent="Ns25BOS1uNBW71o0XdtV-80" vertex="1">
          <mxGeometry width="115" height="27" as="geometry">
            <mxRectangle width="115" height="27" as="alternateBounds" />
          </mxGeometry>
        </mxCell>
        <mxCell id="Ns25BOS1uNBW71o0XdtV-82" value="Target" style="shape=partialRectangle;connectable=0;overflow=hidden;top=0;left=0;bottom=0;right=0;pointerEvents=1;labelBackgroundColor=none;whiteSpace=wrap;html=1;labelBorderColor=none;fillStyle=solid;strokeWidth=2;rounded=0;" parent="Ns25BOS1uNBW71o0XdtV-80" vertex="1">
          <mxGeometry x="115" width="115" height="27" as="geometry">
            <mxRectangle width="115" height="27" as="alternateBounds" />
          </mxGeometry>
        </mxCell>
        <mxCell id="Ns25BOS1uNBW71o0XdtV-77" style="shape=tableRow;horizontal=0;startSize=0;swimlaneHead=0;swimlaneBody=0;strokeColor=inherit;top=0;left=0;bottom=0;right=0;collapsible=0;dropTarget=0;fillColor=none;points=[[0,0.5],[1,0.5]];portConstraint=eastwest;rounded=0;" parent="Ns25BOS1uNBW71o0XdtV-63" vertex="1">
          <mxGeometry y="57" width="230" height="22" as="geometry" />
        </mxCell>
        <mxCell id="Ns25BOS1uNBW71o0XdtV-78" value="10.0.0.0/16" style="shape=partialRectangle;html=1;whiteSpace=wrap;connectable=0;overflow=hidden;top=0;left=0;bottom=0;right=0;pointerEvents=1;labelBackgroundColor=none;fillColor=#f5f5f5;fontColor=#333333;strokeColor=#666666;strokeWidth=2;perimeterSpacing=0;rounded=0;" parent="Ns25BOS1uNBW71o0XdtV-77" vertex="1">
          <mxGeometry width="115" height="22" as="geometry">
            <mxRectangle width="115" height="22" as="alternateBounds" />
          </mxGeometry>
        </mxCell>
        <mxCell id="Ns25BOS1uNBW71o0XdtV-79" value="Local" style="shape=partialRectangle;html=1;whiteSpace=wrap;connectable=0;overflow=hidden;top=0;left=0;bottom=0;right=0;pointerEvents=1;fillColor=#f5f5f5;fontColor=#333333;strokeColor=#666666;strokeWidth=2;rounded=0;" parent="Ns25BOS1uNBW71o0XdtV-77" vertex="1">
          <mxGeometry x="115" width="115" height="22" as="geometry">
            <mxRectangle width="115" height="22" as="alternateBounds" />
          </mxGeometry>
        </mxCell>
        <mxCell id="Ns25BOS1uNBW71o0XdtV-74" style="shape=tableRow;horizontal=0;startSize=0;swimlaneHead=0;swimlaneBody=0;strokeColor=inherit;top=0;left=0;bottom=0;right=0;collapsible=0;dropTarget=0;fillColor=none;points=[[0,0.5],[1,0.5]];portConstraint=eastwest;rounded=0;" parent="Ns25BOS1uNBW71o0XdtV-63" vertex="1">
          <mxGeometry y="79" width="230" height="21" as="geometry" />
        </mxCell>
        <mxCell id="Ns25BOS1uNBW71o0XdtV-75" value="0.0.0.0/0" style="shape=partialRectangle;html=1;whiteSpace=wrap;connectable=0;overflow=hidden;top=0;left=0;bottom=0;right=0;pointerEvents=1;strokeWidth=2;rounded=0;" parent="Ns25BOS1uNBW71o0XdtV-74" vertex="1">
          <mxGeometry width="115" height="21" as="geometry">
            <mxRectangle width="115" height="21" as="alternateBounds" />
          </mxGeometry>
        </mxCell>
        <mxCell id="Ns25BOS1uNBW71o0XdtV-76" value="Internet Gateway" style="shape=partialRectangle;html=1;whiteSpace=wrap;connectable=0;overflow=hidden;top=0;left=0;bottom=0;right=0;pointerEvents=1;strokeWidth=2;rounded=0;" parent="Ns25BOS1uNBW71o0XdtV-74" vertex="1">
          <mxGeometry x="115" width="115" height="21" as="geometry">
            <mxRectangle width="115" height="21" as="alternateBounds" />
          </mxGeometry>
        </mxCell>
        <mxCell id="Ns25BOS1uNBW71o0XdtV-20" value="" style="outlineConnect=0;fontColor=#232F3E;gradientColor=none;fillColor=#8C4FFF;strokeColor=none;dashed=0;verticalLabelPosition=bottom;verticalAlign=top;align=center;html=1;fontSize=12;fontStyle=0;aspect=fixed;pointerEvents=1;shape=mxgraph.aws4.route_table;rounded=0;" parent="1" vertex="1">
          <mxGeometry x="212.79000000000002" y="550" width="47.21" height="46" as="geometry" />
        </mxCell>
        <mxCell id="Ns25BOS1uNBW71o0XdtV-24" value="Public Route Table" style="text;html=1;strokeColor=none;fillColor=none;align=center;verticalAlign=middle;whiteSpace=wrap;rounded=0;" parent="1" vertex="1">
          <mxGeometry x="180" y="595" width="110" height="20" as="geometry" />
        </mxCell>
        <mxCell id="Ns25BOS1uNBW71o0XdtV-106" value="Internet" style="sketch=0;outlineConnect=0;fontColor=#232F3E;gradientColor=none;strokeColor=#232F3E;fillColor=#ffffff;dashed=0;verticalLabelPosition=bottom;verticalAlign=top;align=center;html=1;fontSize=12;fontStyle=0;aspect=fixed;shape=mxgraph.aws4.resourceIcon;resIcon=mxgraph.aws4.internet;" parent="1" vertex="1">
          <mxGeometry x="270" y="90" width="60" height="60" as="geometry" />
        </mxCell>
        <mxCell id="Ns25BOS1uNBW71o0XdtV-105" value="" style="edgeStyle=orthogonalEdgeStyle;rounded=0;orthogonalLoop=1;jettySize=auto;html=1;" parent="1" source="Ns25BOS1uNBW71o0XdtV-12" target="Ns25BOS1uNBW71o0XdtV-106" edge="1">
          <mxGeometry relative="1" as="geometry">
            <mxPoint x="230" y="120" as="targetPoint" />
            <Array as="points">
              <mxPoint x="220" y="191" />
              <mxPoint x="220" y="120" />
            </Array>
          </mxGeometry>
        </mxCell>
      </root>
    </mxGraphModel>
  </diagram>
</mxfile>
